<svg width="25" height="25" viewBox="0 0 25 25" fill="none" xmlns="http://www.w3.org/2000/svg">
<path d="M10.4166 18.75C12.2655 18.7496 14.0612 18.1307 15.5176 16.9917L20.0968 21.5708L21.5697 20.0979L16.9905 15.5188C18.1301 14.0622 18.7495 12.2661 18.7499 10.4167C18.7499 5.82189 15.0114 2.08334 10.4166 2.08334C5.82179 2.08334 2.08325 5.82189 2.08325 10.4167C2.08325 15.0115 5.82179 18.75 10.4166 18.75ZM10.4166 4.16668C13.8635 4.16668 16.6666 6.9698 16.6666 10.4167C16.6666 13.8636 13.8635 16.6667 10.4166 16.6667C6.96971 16.6667 4.16659 13.8636 4.16659 10.4167C4.16659 6.9698 6.96971 4.16668 10.4166 4.16668Z" fill="white"/>
</svg>
