<svg id="Capa_1" enable-background="new 0 0 512 512" height="512" viewBox="0 0 512 512" width="512" xmlns="http://www.w3.org/2000/svg"><g><path d="m145.226 265.637c-5.6-1.126-11.436-.633-16.768 1.414-9.123 3.503-19.003 5.466-29.361 5.466s-20.239-1.963-29.362-5.466c-5.484-2.106-11.489-2.516-17.24-1.316-14.197 2.962-26.726 10.466-35.978 20.93l-9.46 43.659v33.982c0 13.683 11.092 24.774 24.774 24.774h166.363v-58.756c0-31.997-22.761-58.616-52.968-64.687z" fill="#7ad7ee"/><path d="m24.774 379.871c-4.561 0-8.258-3.697-8.258-8.258v-84.949c-10.255 11.62-16.517 26.93-16.516 43.659v41.29c0 13.682 11.092 24.774 24.774 24.774h148.645c10.771 0 19.844-6.916 23.257-16.516z" fill="#4bc3ef"/><path d="m140.387 189.936c0 8.218-2.401 15.876-6.54 22.309-7.345 11.418-20.165 16.53-34.751 16.53-22.804 0-39.465-16.035-39.465-38.839 0-6.228 5.715-27.366 17.104-34.717 6.444-4.159 14.121-6.573 22.361-6.573 22.805-.001 41.291 18.485 41.291 41.29z" fill="#7ad7ee"/><path d="m111.484 218.839c-22.804 0-41.29-18.486-41.29-41.29 0-8.226 2.396-15.893 6.542-22.33-11.408 7.348-18.929 20.14-18.929 34.717 0 22.804 18.486 41.29 41.29 41.29 14.578 0 27.403-7.573 34.751-18.981-6.438 4.146-14.138 6.594-22.364 6.594z" fill="#4bc3ef"/><path d="m458.779 265.586c-5.52-1.087-11.297-.537-16.55 1.478-9.113 3.494-18.981 5.452-29.326 5.452-10.344 0-20.212-1.958-29.326-5.452-5.253-2.015-11.03-2.565-16.55-1.478-30.333 5.973-53.222 32.651-53.221 64.736v41.29c0 13.682 11.092 24.774 24.774 24.774h148.645c13.682 0 24.774-11.092 24.774-24.774v-41.29c.001-32.085-22.888-58.763-53.22-64.736z" fill="#7ad7ee"/><path d="m313.806 140.387c0 12.276-3.827 23.659-10.353 33.02-10.444 14.983-27.804 20.943-47.453 20.943-31.926 0-53.889-22.037-53.889-53.963 0-19.638 5.876-36.989 20.844-47.436 9.366-6.536 20.758-10.37 33.045-10.37 31.926 0 57.806 25.88 57.806 57.806z" fill="#4bc3ef"/><path d="m322.435 233.411c-5.515-1.454-11.472-.753-16.513 1.913-14.916 7.888-31.873 12.418-49.921 12.418s-35.006-4.53-49.921-12.418c-5.041-2.666-10.999-3.367-16.513-1.913-12.826 3.381-24.139 10.535-32.662 20.185l-10.611 43.695v91.647c0 18.243 14.789 33.032 33.032 33.032h159.256l28.613-9.066c2.811-4.859 4.419-10.499 4.419-16.516v-99.098c-.001-30.649-20.874-56.418-49.179-63.879z" fill="#4bc3ef"/><path d="m173.419 412.903c-9.122 0-16.516-7.395-16.516-16.516v-142.792c-10.261 11.64-16.516 26.957-16.516 43.695v99.097c0 18.243 14.789 33.032 33.032 33.032h165.161c12.196 0 22.891-6.684 28.613-16.516z" fill="#1badde"/><path d="m270.405 183.788c-31.925 0-57.806-25.881-57.806-57.806 0-12.282 3.826-23.668 10.357-33.031-14.975 10.446-24.762 27.793-24.762 47.436 0 31.925 25.881 57.806 57.806 57.806 19.644 0 37.008-9.811 47.454-24.787-9.364 6.533-20.766 10.382-33.049 10.382z" fill="#1badde"/><path d="m454.194 189.936c0 8.218-2.401 15.876-6.54 22.309-7.345 11.418-20.165 16.53-34.751 16.53-22.804 0-39.465-16.035-39.465-38.839 0-6.228 5.715-27.366 17.104-34.717 6.444-4.159 14.121-6.573 22.361-6.573 22.804-.001 41.291 18.485 41.291 41.29z" fill="#7ad7ee"/><path d="m425.29 218.839c-22.804 0-41.29-18.486-41.29-41.29 0-8.226 2.396-15.893 6.542-22.33-11.408 7.348-18.929 20.14-18.929 34.717 0 22.804 18.486 41.29 41.29 41.29 14.578 0 27.403-7.573 34.751-18.981-6.438 4.146-14.137 6.594-22.364 6.594z" fill="#4bc3ef"/></g></svg>