<svg width="512" height="512" viewBox="0 0 36 36" fill="none" xmlns="http://www.w3.org/2000/svg">
<path d="M10 5.20001H28V6.75001H10V5.20001Z" fill="white"/>
<path d="M29.0001 8H9.86005C9.60486 7.99638 9.35303 7.94112 9.11978 7.83753C8.88652 7.73395 8.67666 7.5842 8.50285 7.3973C8.32903 7.21041 8.19488 6.99025 8.10847 6.7501C8.02205 6.50995 7.98517 6.25479 8.00005 6C7.99881 5.49296 8.1902 5.00436 8.5355 4.63307C8.88081 4.26177 9.35425 4.03549 9.86005 4H29.0001C29.2653 4 29.5196 3.89464 29.7072 3.70711C29.8947 3.51957 30.0001 3.26522 30.0001 3C30.0001 2.73478 29.8947 2.48043 29.7072 2.29289C29.5196 2.10536 29.2653 2 29.0001 2H9.86005C8.82364 2.0363 7.84183 2.47369 7.1217 3.21994C6.40157 3.96619 5.99942 4.96295 6.00005 6C5.99038 6.16319 5.99038 6.32681 6.00005 6.49C5.99042 6.56971 5.99042 6.65029 6.00005 6.73V30C5.99942 31.037 6.40157 32.0338 7.1217 32.7801C7.84183 33.5263 8.82364 33.9637 9.86005 34H29.0001C29.2653 34 29.5196 33.8946 29.7072 33.7071C29.8947 33.5196 30.0001 33.2652 30.0001 33V9.25V9.16V9.07C30.0006 8.79794 29.8976 8.53587 29.7118 8.33711C29.526 8.13834 29.2715 8.0178 29.0001 8ZM28.0001 32H9.86005C9.35425 31.9645 8.88081 31.7382 8.5355 31.3669C8.1902 30.9956 7.99881 30.507 8.00005 30V9.55C8.56864 9.86367 9.21096 10.0191 9.86005 10H28.0001V32Z" fill="white"/>
</svg>
